<?xml version="1.0" encoding="UTF-8"?>
<svg width="334px" height="272px" viewBox="0 0 334 272" version="1.1" xmlns="http://www.w3.org/2000/svg" xmlns:xlink="http://www.w3.org/1999/xlink">
    <!-- Generator: Sketch 61.1 (89650) - https://sketch.com -->
    <title>Clarity Logo Square Large</title>
    <desc>Created with Sketch.</desc>
    <g id="Page-1" stroke="none" stroke-width="1" fill="none" fill-rule="evenodd">
        <g id="Clarity-Logo-Square-Large" fill-rule="nonzero">
            <g id="Group" transform="translate(72.179775, 0.000000)">
                <path d="M101.314452,200.597198 C75.4914576,200.597198 49.6684624,190.6012 29.9541326,170.886871 C-9.19686009,131.735878 -9.4745267,68.1502231 29.1211328,29.276897 C67.7167924,-9.59642912 131.302448,-9.3187625 170.731107,30.1098969 C174.063106,33.4418963 174.063106,38.7175619 170.731107,41.7718947 C167.399107,44.8262275 162.123441,45.1038941 159.069108,41.7718947 C126.026781,9.28490076 72.992458,9.00723407 40.7831306,41.2165615 C8.57380332,73.4258889 8.85146991,126.460212 41.6161305,159.224873 C74.3807911,191.989534 127.137448,192.2672 159.624442,160.057873 C162.956441,156.725873 168.232108,156.725873 171.28644,160.057873 C174.340773,163.389872 174.61844,168.665538 171.28644,171.719871 C151.849776,190.878867 126.582115,200.597198 101.314452,200.597198 Z" id="Path" fill="#A8E6CA"></path>
                <path d="M101.036787,166.166539 C100.75912,166.166539 100.75912,166.166539 100.481453,166.166539 C82.9884562,166.166539 66.3284593,159.224873 53.8334616,146.729875 C41.3384639,134.234878 34.3967985,117.574881 34.3967985,100.081884 C34.3967985,82.5888872 41.0607973,65.9288903 53.2781283,53.7115592 C65.773126,41.2165615 82.1554564,34.5525627 99.6484532,34.8302293 C117.14145,34.8302293 133.801447,41.7718947 146.296444,54.2668924 C149.628444,57.5988918 149.628444,62.8745575 146.296444,65.9288903 C142.964445,69.2608896 137.68878,69.2608896 134.634447,65.9288903 C125.193781,56.4882253 112.976451,51.4902263 99.6484532,51.2125596 C99.6484532,51.2125596 99.3707865,51.2125596 99.3707865,51.2125596 C86.3204556,51.2125596 74.3807911,56.2105588 65.2177928,65.3735571 C56.0547945,74.5365553 51.0567954,86.7538864 51.0567954,99.8042172 C51.0567954,112.854548 56.3324611,125.349546 65.773126,134.790211 C75.213791,144.230876 87.431122,149.228875 100.75912,149.506541 C113.809451,149.506541 126.026781,144.508542 135.18978,135.345544 C138.521779,132.013545 143.797445,132.013545 146.851778,135.345544 C150.183777,138.677544 150.183777,143.953209 146.851778,147.007542 C134.634447,159.502539 118.252116,166.166539 101.036787,166.166539 Z" id="Path" fill="#FFCE7A"></path>
                <path d="M100.481453,134.512544 C91.5961213,134.512544 82.9884562,131.180545 76.3244574,124.516546 C62.9964599,111.188549 62.9964599,89.5305526 76.0467908,76.4802217 C82.433123,70.0938895 91.0407881,66.4842235 100.203787,66.7618901 C109.366785,66.7618901 117.696784,70.3715561 124.360782,76.7578883 C127.692782,80.0898876 127.692782,85.3655533 124.360782,88.4198861 C121.028783,91.4742188 115.753117,91.7518854 112.698784,88.4198861 C109.366785,85.0878867 104.924118,83.1442204 100.203787,83.1442204 C95.7611205,83.421887 91.3184547,84.8102201 87.9864553,88.1422195 C81.3224565,94.8062182 81.3224565,105.912883 88.2641219,112.576881 C95.2057873,119.518547 106.034785,119.518547 112.698784,112.854548 C116.030783,109.522549 121.30645,109.522549 124.360782,112.854548 C127.415115,116.186547 127.692782,121.462214 124.360782,124.516546 C117.696784,131.180545 109.089118,134.512544 100.481453,134.512544 Z" id="Path" fill="#EE8491"></path>
            </g>
            <path d="M223.802422,261.357393 L217.079446,252.63224 C216.386463,251.731643 216.5461,250.441299 217.437667,249.736737 C218.329506,249.03813 219.613753,249.198661 220.306415,250.097932 L225.846218,257.289123 L231.386022,250.097932 C231.716258,249.666381 232.2057,249.385214 232.744851,249.317331 C233.284002,249.249448 233.827865,249.400516 234.254769,249.736737 C235.146608,250.435344 235.305652,251.732969 234.612991,252.63224 L227.890015,261.357393 L227.890015,268.903834 C227.890015,270.042414 226.975881,270.966954 225.846218,270.966954 C224.716556,270.966954 223.802422,270.042414 223.802422,268.903834 L223.802422,261.355907 L223.802422,261.357393 Z M185.991441,253.428949 L180.881206,253.428949 C179.751544,253.428949 178.837409,252.50441 178.837409,251.365829 C178.837409,250.225762 179.75303,249.301223 180.881206,249.301223 L195.187782,249.301223 C196.317444,249.301223 197.231579,250.225762 197.231579,251.365829 C197.231579,252.50441 196.317444,253.428949 195.187782,253.428949 L190.079034,253.428949 L190.079034,268.902347 C190.079034,270.042414 189.163413,270.966954 188.035237,270.966954 C186.905575,270.966954 185.991441,270.042414 185.991441,268.903834 L185.991441,253.428949 Z M124.64484,263.744548 L119.56582,263.744548 L119.56582,268.902347 C119.56582,270.042414 118.650199,270.966954 117.522023,270.966954 C116.392361,270.966954 115.478227,270.042414 115.478227,268.903834 L115.478227,251.365829 C115.478227,250.225762 116.392361,249.301223 117.522023,249.301223 L126.718365,249.301223 C130.66921,249.301223 133.872418,252.535624 133.872418,256.523629 C133.879606,259.487983 132.075087,262.155867 129.321047,263.25255 L132.469237,267.704311 C133.126225,268.631823 132.91367,269.919043 131.99359,270.581977 C131.553257,270.89933 131.004257,271.027318 130.468979,270.937407 C129.933701,270.847496 129.456646,270.547161 129.144166,270.103357 L124.64484,263.744548 L124.64484,263.744548 Z M125.720992,259.618308 L126.718365,259.618308 C128.412858,259.618308 129.784803,258.232986 129.784803,256.523629 C129.784803,254.814271 128.412858,253.428949 126.718365,253.428949 L119.56582,253.428949 L119.56582,259.618308 L125.720992,259.618308 L125.720992,259.618308 Z M89.8497598,266.840714 L79.7898211,266.840714 L78.5115192,269.742162 C78.2945977,270.240459 77.8874932,270.631374 77.3808078,270.827906 C76.8741223,271.024439 76.3098993,271.010282 75.8137077,270.788586 C74.7795726,270.319056 74.3166788,269.104126 74.7762022,268.065506 L82.9513887,249.495941 C83.6708052,247.860904 85.9687758,247.860904 86.6881922,249.495941 L94.8633788,268.065506 C95.3211893,269.105984 94.8574332,270.32483 93.8258733,270.788586 C93.3296817,271.010282 92.7654586,271.024439 92.2587732,270.827906 C91.7520878,270.631374 91.3449833,270.240459 91.1280617,269.742162 L89.8497598,266.840714 L89.8497598,266.840714 Z M88.033382,262.712988 L84.8197905,255.414776 L81.606199,262.712988 L88.033382,262.712988 L88.033382,262.712988 Z M19.4628897,252.913169 C20.2328436,253.745552 20.1882517,255.053581 19.363301,255.829481 C18.9684529,256.202801 18.4404412,256.402274 17.8973833,256.383278 C17.3543255,256.364282 16.8415422,256.128403 16.4737442,255.728406 C15.1288414,254.262988 13.2306479,253.429292 11.2416248,253.430435 C7.29078004,253.430435 4.0875933,256.66335 4.0875933,260.651355 C4.0875933,264.639359 7.29078004,267.87376 11.2416248,267.87376 C13.5047977,267.872945 15.6326645,266.795767 16.9731738,264.972312 C17.2953171,264.534833 17.7792409,264.244583 18.3168736,264.166382 C18.8545064,264.088181 19.4010647,264.228543 19.8344891,264.556121 C20.7382188,265.239864 20.9225321,266.53303 20.2462212,267.445678 C18.1382754,270.307644 14.7960985,271.998042 11.2416248,272 C5.03294215,272 0,266.919493 0,260.651355 C0,254.384702 5.03294215,249.302709 11.2416248,249.302709 C14.3987332,249.302709 17.3507187,250.627089 19.4628897,252.914655 L19.4628897,252.913169 Z M44.9650127,252.398875 L44.9650127,266.8422 L53.1401992,266.8422 C54.2698614,266.8422 55.1839959,267.765253 55.1839959,268.90532 C55.1839959,270.043901 54.268375,270.96844 53.1401992,270.96844 L42.921216,270.96844 C41.7915539,270.96844 40.8774194,270.043901 40.8774194,268.90532 L40.8774194,252.397389 C40.8774194,251.257322 41.7915539,250.332783 42.921216,250.332783 C44.0508781,250.332783 44.9650127,251.257322 44.9650127,252.397389 L44.9650127,252.398875 Z M159.420598,268.90532 C159.420598,270.043901 158.506463,270.96844 157.376801,270.96844 C156.247139,270.96844 155.333004,270.043901 155.333004,268.90532 L155.333004,251.365829 C155.333004,250.227249 156.248625,249.302709 157.376801,249.302709 C158.506463,249.302709 159.420598,250.227249 159.420598,251.367315 L159.420598,268.90532 Z M303.892495,266.840714 L293.829584,266.840714 L292.552768,269.742162 C292.335847,270.240459 291.928742,270.631374 291.422057,270.827906 C290.915371,271.024439 290.351148,271.010282 289.854957,270.788586 C288.820822,270.319056 288.357928,269.104126 288.817451,268.065506 L296.992638,249.495941 C297.712054,247.860904 300.010025,247.860904 300.729441,249.495941 L308.904628,268.065506 C309.362438,269.105984 308.898682,270.32483 307.867122,270.788586 C307.370931,271.010282 306.806708,271.024439 306.300022,270.827906 C305.793337,270.631374 305.386232,270.240459 305.169311,269.742162 L303.891009,266.840714 L303.892495,266.840714 Z M302.074631,262.712988 L298.861039,255.414776 L295.647448,262.712988 L302.074631,262.712988 Z M333.329112,268.903834 C333.329112,270.042414 332.414978,270.966954 331.285316,270.966954 C330.155654,270.966954 329.241519,270.042414 329.241519,268.903834 L329.241519,251.364343 C329.241519,250.225762 330.15714,249.301223 331.285316,249.301223 C332.414978,249.301223 333.329112,250.225762 333.329112,251.365829 L333.329112,268.903834 Z" id="Shape" fill="#434C5C"></path>
        </g>
    </g>
</svg>